
<svg version="1.1" xmlns="http://www.w3.org/2000/svg" xmlns:xlink="http://www.w3.org/1999/xlink">
  <defs>
    <!--laravel-->
    <symbol  id="icon-laravel" viewBox="0 -.11376601 49.74245785 51.31690859">
      <path d="m49.626 11.564a.809.809 0 0 1 .028.209v10.972a.8.8 0 0 1 -.402.694l-9.209 5.302v10.509c0 .286-.152.55-.4.694l-19.223 11.066c-.044.025-.092.041-.14.058-.018.006-.035.017-.054.022a.805.805 0 0 1 -.41 0c-.022-.006-.042-.018-.063-.026-.044-.016-.09-.03-.132-.054l-19.219-11.066a.801.801 0 0 1 -.402-.694v-32.916c0-.072.01-.142.028-.21.006-.023.02-.044.028-.067.015-.042.029-.085.051-.124.015-.026.037-.047.055-.071.023-.032.044-.065.071-.093.023-.023.053-.04.079-.06.029-.024.055-.05.088-.069h.001l9.61-5.533a.802.802 0 0 1 .8 0l9.61 5.533h.002c.032.02.059.045.088.068.026.02.055.038.078.06.028.029.048.062.072.094.017.024.04.045.054.071.023.04.036.082.052.124.008.023.022.044.028.068a.809.809 0 0 1 .028.209v20.559l8.008-4.611v-10.51c0-.07.01-.141.028-.208.007-.024.02-.045.028-.068.016-.042.03-.085.052-.124.015-.026.037-.047.054-.071.024-.032.044-.065.072-.093.023-.023.052-.04.078-.06.03-.024.056-.05.088-.069h.001l9.611-5.533a.801.801 0 0 1 .8 0l9.61 5.533c.034.02.06.045.09.068.025.02.054.038.077.06.028.029.048.062.072.094.018.024.04.045.054.071.023.039.036.082.052.124.009.023.022.044.028.068zm-1.574 10.718v-9.124l-3.363 1.936-4.646 2.675v9.124l8.01-4.611zm-9.61 16.505v-9.13l-4.57 2.61-13.05 7.448v9.216zm-36.84-31.068v31.068l17.618 10.143v-9.214l-9.204-5.209-.003-.002-.004-.002c-.031-.018-.057-.044-.086-.066-.025-.02-.054-.036-.076-.058l-.002-.003c-.026-.025-.044-.056-.066-.084-.02-.027-.044-.05-.06-.078l-.001-.003c-.018-.03-.029-.066-.042-.1-.013-.03-.03-.058-.038-.09v-.001c-.01-.038-.012-.078-.016-.117-.004-.03-.012-.06-.012-.09v-21.483l-4.645-2.676-3.363-1.934zm8.81-5.994-8.007 4.609 8.005 4.609 8.006-4.61-8.006-4.608zm4.164 28.764 4.645-2.674v-20.096l-3.363 1.936-4.646 2.675v20.096zm24.667-23.325-8.006 4.609 8.006 4.609 8.005-4.61zm-.801 10.605-4.646-2.675-3.363-1.936v9.124l4.645 2.674 3.364 1.937zm-18.422 20.561 11.743-6.704 5.87-3.35-8-4.606-9.211 5.303-8.395 4.833z" fill="#ff2d20"/>
    </symbol>

    <!--html-->
    <symbol id="icon-html" fill="none" viewBox="0 0 124 141.53199999999998">
      <path d="M10.383 126.894L0 0l124 .255-10.979 126.639-50.553 14.638z" fill="#e34f26"/>
      <path d="M62.468 129.277V12.085l51.064.17-9.106 104.851z" fill="#ef652a"/>
      <path d="M99.49 41.362l1.446-15.49H22.383l4.34 47.49h54.213L78.81 93.617l-17.362 4.68-17.617-5.106-.936-12.085H27.319l2.128 24.681 32 8.936 32.255-8.936 4.34-48.17H41.107L39.49 41.362z" fill="#fff"/>
    </symbol>

    <!--css-->
    <svg id="icon-css" fill="none" viewBox="0 0 124 141.53">
      <path d="M10.383 126.892L0 0l124 .255-10.979 126.637-50.553 14.638z" fill="#1b73ba"/>
      <path d="M62.468 129.275V12.085l51.064.17-9.106 104.85z" fill="#1c88c7"/>
      <path d="M100.851 27.064H22.298l2.128 15.318h37.276l-36.68 15.745 2.127 14.808h54.043l-1.958 20.68-18.298 3.575-16.595-4.255-1.277-11.745H27.83l2.042 24.426 32.681 9.106 31.32-9.957 4-47.745H64.765l36.085-14.978z" fill="#fff"/>
    </svg>

    <!-- react -->
    <symbol id="icon-react" viewBox="175.7 78 490.6 436.9" >
      <g fill="#61dafb">
      <path d="m666.3 296.5c0-32.5-40.7-63.3-103.1-82.4 14.4-63.6 8-114.2-20.2-130.4-6.5-3.8-14.1-5.6-22.4-5.6v22.3c4.6 0 8.3.9 11.4 2.6 13.6 7.8 19.5 37.5 14.9 75.7-1.1 9.4-2.9 19.3-5.1 29.4-19.6-4.8-41-8.5-63.5-10.9-13.5-18.5-27.5-35.3-41.6-50 32.6-30.3 63.2-46.9 84-46.9v-22.3c-27.5 0-63.5 19.6-99.9 53.6-36.4-33.8-72.4-53.2-99.9-53.2v22.3c20.7 0 51.4 16.5 84 46.6-14 14.7-28 31.4-41.3 49.9-22.6 2.4-44 6.1-63.6 11-2.3-10-4-19.7-5.2-29-4.7-38.2 1.1-67.9 14.6-75.8 3-1.8 6.9-2.6 11.5-2.6v-22.3c-8.4 0-16 1.8-22.6 5.6-28.1 16.2-34.4 66.7-19.9 130.1-62.2 19.2-102.7 49.9-102.7 82.3 0 32.5 40.7 63.3 103.1 82.4-14.4 63.6-8 114.2 20.2 130.4 6.5 3.8 14.1 5.6 22.5 5.6 27.5 0 63.5-19.6 99.9-53.6 36.4 33.8 72.4 53.2 99.9 53.2 8.4 0 16-1.8 22.6-5.6 28.1-16.2 34.4-66.7 19.9-130.1 62-19.1 102.5-49.9 102.5-82.3zm-130.2-66.7c-3.7 12.9-8.3 26.2-13.5 39.5-4.1-8-8.4-16-13.1-24-4.6-8-9.5-15.8-14.4-23.4 14.2 2.1 27.9 4.7 41 7.9zm-45.8 106.5c-7.8 13.5-15.8 26.3-24.1 38.2-14.9 1.3-30 2-45.2 2-15.1 0-30.2-.7-45-1.9-8.3-11.9-16.4-24.6-24.2-38-7.6-13.1-14.5-26.4-20.8-39.8 6.2-13.4 13.2-26.8 20.7-39.9 7.8-13.5 15.8-26.3 24.1-38.2 14.9-1.3 30-2 45.2-2 15.1 0 30.2.7 45 1.9 8.3 11.9 16.4 24.6 24.2 38 7.6 13.1 14.5 26.4 20.8 39.8-6.3 13.4-13.2 26.8-20.7 39.9zm32.3-13c5.4 13.4 10 26.8 13.8 39.8-13.1 3.2-26.9 5.9-41.2 8 4.9-7.7 9.8-15.6 14.4-23.7 4.6-8 8.9-16.1 13-24.1zm-101.4 106.7c-9.3-9.6-18.6-20.3-27.8-32 9 .4 18.2.7 27.5.7 9.4 0 18.7-.2 27.8-.7-9 11.7-18.3 22.4-27.5 32zm-74.4-58.9c-14.2-2.1-27.9-4.7-41-7.9 3.7-12.9 8.3-26.2 13.5-39.5 4.1 8 8.4 16 13.1 24s9.5 15.8 14.4 23.4zm73.9-208.1c9.3 9.6 18.6 20.3 27.8 32-9-.4-18.2-.7-27.5-.7-9.4 0-18.7.2-27.8.7 9-11.7 18.3-22.4 27.5-32zm-74 58.9c-4.9 7.7-9.8 15.6-14.4 23.7-4.6 8-8.9 16-13 24-5.4-13.4-10-26.8-13.8-39.8 13.1-3.1 26.9-5.8 41.2-7.9zm-90.5 125.2c-35.4-15.1-58.3-34.9-58.3-50.6s22.9-35.6 58.3-50.6c8.6-3.7 18-7 27.7-10.1 5.7 19.6 13.2 40 22.5 60.9-9.2 20.8-16.6 41.1-22.2 60.6-9.9-3.1-19.3-6.5-28-10.2zm53.8 142.9c-13.6-7.8-19.5-37.5-14.9-75.7 1.1-9.4 2.9-19.3 5.1-29.4 19.6 4.8 41 8.5 63.5 10.9 13.5 18.5 27.5 35.3 41.6 50-32.6 30.3-63.2 46.9-84 46.9-4.5-.1-8.3-1-11.3-2.7zm237.2-76.2c4.7 38.2-1.1 67.9-14.6 75.8-3 1.8-6.9 2.6-11.5 2.6-20.7 0-51.4-16.5-84-46.6 14-14.7 28-31.4 41.3-49.9 22.6-2.4 44-6.1 63.6-11 2.3 10.1 4.1 19.8 5.2 29.1zm38.5-66.7c-8.6 3.7-18 7-27.7 10.1-5.7-19.6-13.2-40-22.5-60.9 9.2-20.8 16.6-41.1 22.2-60.6 9.9 3.1 19.3 6.5 28.1 10.2 35.4 15.1 58.3 34.9 58.3 50.6-.1 15.7-23 35.6-58.4 50.6z"/>
      <circle cx="420.9" cy="296.5" r="45.7"/>
      </g>
    </symbol>

    <!-- node -->
    <svg id="icon-node"  viewBox="0 0 256 282" >
      <g fill="#8CC84B">
      <path d="M116.504 3.58c6.962-3.985 16.03-4.003 22.986 0 34.995 19.774 70.001 39.517 104.99 59.303 6.581 3.707 10.983 11.031 10.916 18.614v118.968c.049 7.897-4.788 15.396-11.731 19.019-34.88 19.665-69.742 39.354-104.616 59.019-7.106 4.063-16.356 3.75-23.24-.646-10.457-6.062-20.932-12.094-31.39-18.15-2.137-1.274-4.546-2.288-6.055-4.36 1.334-1.798 3.719-2.022 5.657-2.807 4.365-1.388 8.374-3.616 12.384-5.778 1.014-.694 2.252-.428 3.224.193 8.942 5.127 17.805 10.403 26.777 15.481 1.914 1.105 3.852-.362 5.488-1.274 34.228-19.345 68.498-38.617 102.72-57.968 1.268-.61 1.969-1.956 1.866-3.345.024-39.245.006-78.497.012-117.742.145-1.576-.767-3.025-2.192-3.67-34.759-19.575-69.5-39.18-104.253-58.76a3.621 3.621 0 0 0-4.094-.006C91.2 39.257 56.465 58.88 21.712 78.454c-1.42.646-2.373 2.071-2.204 3.653.006 39.245 0 78.497 0 117.748a3.329 3.329 0 0 0 1.89 3.303c9.274 5.259 18.56 10.481 27.84 15.722 5.228 2.814 11.647 4.486 17.407 2.33 5.083-1.823 8.646-7.01 8.549-12.407.048-39.016-.024-78.038.036-117.048-.127-1.732 1.516-3.163 3.2-3 4.456-.03 8.918-.06 13.374.012 1.86-.042 3.14 1.823 2.91 3.568-.018 39.263.048 78.527-.03 117.79.012 10.464-4.287 21.85-13.966 26.97-11.924 6.177-26.662 4.867-38.442-1.056-10.198-5.09-19.93-11.097-29.947-16.55C5.368 215.886.555 208.357.604 200.466V81.497c-.073-7.74 4.504-15.197 11.29-18.85C46.768 42.966 81.636 23.27 116.504 3.58z"/>
      <path d="M146.928 85.99c15.21-.979 31.493-.58 45.18 6.913 10.597 5.742 16.472 17.793 16.659 29.566-.296 1.588-1.956 2.464-3.472 2.355-4.413-.006-8.827.06-13.24-.03-1.872.072-2.96-1.654-3.195-3.309-1.268-5.633-4.34-11.212-9.642-13.929-8.139-4.075-17.576-3.87-26.451-3.785-6.479.344-13.446.905-18.935 4.715-4.214 2.886-5.494 8.712-3.99 13.404 1.418 3.369 5.307 4.456 8.489 5.458 18.33 4.794 37.754 4.317 55.734 10.626 7.444 2.572 14.726 7.572 17.274 15.366 3.333 10.446 1.872 22.932-5.56 31.318-6.027 6.901-14.805 10.657-23.56 12.697-11.647 2.597-23.734 2.663-35.562 1.51-11.122-1.268-22.696-4.19-31.282-11.768-7.342-6.375-10.928-16.308-10.572-25.895.085-1.619 1.697-2.748 3.248-2.615 4.444-.036 8.888-.048 13.332.006 1.775-.127 3.091 1.407 3.182 3.08.82 5.367 2.837 11 7.517 14.182 9.032 5.827 20.365 5.428 30.707 5.591 8.568-.38 18.186-.495 25.178-6.158 3.689-3.23 4.782-8.634 3.785-13.283-1.08-3.925-5.186-5.754-8.712-6.95-18.095-5.724-37.736-3.647-55.656-10.12-7.275-2.571-14.31-7.432-17.105-14.906-3.9-10.578-2.113-23.662 6.098-31.765 8.006-8.06 19.563-11.164 30.551-12.275z"/>
      </g>
    </svg>

    <!-- sass -->
    <svg id="icon-sass" viewBox="0 0 512 384">
      <path fill="#CF649A" d="M440.6 220.6c-17.9.101-33.4 4.4-46.4 10.801-4.8-9.5-9.6-17.801-10.399-24-.9-7.2-2-11.601-.9-20.2C384 178.6 389 166.4 389 165.4c-.101-.9-1.101-5.3-11.4-5.4s-19.2 2-20.2 4.7-3 8.9-4.3 15.3c-1.8 9.4-20.6 42.7-31.3 60.2-3.5-6.8-6.5-12.8-7.101-17.601-.899-7.199-2-11.6-.899-20.199 1.1-8.601 6.1-20.8 6.1-21.8-.1-.9-1.1-5.3-11.399-5.4-10.301-.1-19.2 2-20.2 4.7s-2.1 9.1-4.3 15.3C281.9 201.4 256.9 257 250.4 271.5c-3.3 7.4-6.199 13.3-8.3 17.3-2.1 4-.1.3-.3.7-1.8 3.4-2.8 5.3-2.8 5.3v.101c-1.4 2.5-2.9 4.899-3.601 4.899-.5 0-1.5-6.7.2-15.899 3.7-19.301 12.7-49.4 12.601-50.5 0-.5 1.699-5.801-5.801-8.5-7.3-2.7-9.899 1.8-10.5 1.8-.6 0-1.1 1.6-1.1 1.6s8.1-33.899-15.5-33.899c-14.8 0-35.2 16.1-45.3 30.8-6.4 3.5-20 10.899-34.4 18.8-5.5 3-11.2 6.2-16.6 9.1L117.9 251.9c-28.6-30.5-81.5-52.1-79.3-93.1.8-14.9 6-54.2 101.601-101.8 78.3-39 141-28.3 151.899-4.5 15.5 34-33.5 97.2-114.899 106.3-31 3.5-47.301-8.5-51.4-13-4.3-4.7-4.9-4.9-6.5-4-2.6 1.4-1 5.6 0 8.1 2.4 6.3 12.4 17.5 29.4 23.1 14.899 4.9 51.3 7.6 95.3-9.4 49.3-19.1 87.8-72.1 76.5-116.4-11.5-45.1-86.3-59.9-157-34.8C121.4 27.4 75.8 50.8 43 81.5 4 117.9-2.2 149.7.4 162.9c9.101 47.1 74 77.8 100 100.5-1.3.699-2.5 1.399-3.6 2-13 6.399-62.5 32.3-74.9 59.699-14 31 2.2 53.301 13 56.301 33.4 9.3 67.6-7.4 86.1-34.9 18.399-27.5 16.2-63.2 7.7-79.5l-.301-.6 10.2-6c6.601-3.9 13.101-7.5 18.8-10.601-3.199 8.7-5.5 19-6.699 34-1.4 17.601 5.8 40.4 15.3 49.4 4.2 3.899 9.2 4 12.3 4 11 0 16-9.101 21.5-20 6.8-13.3 12.8-28.7 12.8-28.7s-7.5 41.7 13 41.7c7.5 0 15-9.7 18.4-14.7v.1s.2-.3.6-1a36.13 36.13 0 0 0 1.2-1.899v-.2c3-5.2 9.7-17.1 19.7-36.8 12.899-25.4 25.3-57.2 25.3-57.2s1.2 7.8 4.9 20.6c2.199 7.601 6.999 15.9 10.699 24-3 4.2-4.8 6.601-4.8 6.601l.1.1c-2.399 3.2-5.1 6.601-7.899 10-10.2 12.2-22.4 26.101-24 30.101-1.9 4.699-1.5 8.199 2.2 11 2.7 2 7.5 2.399 12.6 2 9.2-.601 15.6-2.9 18.8-4.301 5-1.8 10.7-4.5 16.2-8.5 10-7.399 16.1-17.899 15.5-31.899-.3-7.7-2.8-15.3-5.9-22.5.9-1.3 1.801-2.601 2.7-4 15.8-23.101 28-48.5 28-48.5s1.2 7.8 4.9 20.6c1.899 6.5 5.7 13.601 9.1 20.601-14.8 12.1-24.1 26.1-27.3 35.3-5.9 17-1.3 24.7 7.4 26.5 3.899.8 9.5-1 13.699-2.8 5.2-1.7 11.5-4.601 17.301-8.9 10-7.4 19.6-17.7 19.1-31.6-.3-6.4-2-12.7-4.3-18.7 12.6-5.2 28.899-8.2 49.6-5.7 44.5 5.2 53.3 33 51.601 44.6-1.7 11.601-11 18-14.101 20-3.1 1.9-4.1 2.601-3.8 4 .4 2.101 1.8 2 4.5 1.601 3.7-.601 23.4-9.5 24.2-30.899 1.2-27.504-24.9-57.504-71.2-57.205zM97.4 336.3c-14.7 16.1-35.4 22.2-44.2 17-9.5-5.5-5.801-29.2 12.3-46.3 11-10.4 25.3-20 34.7-25.9 2.1-1.3 5.3-3.199 9.1-5.5.6-.399 1-.6 1-.6.7-.4 1.5-.9 2.3-1.4 6.7 24.4.3 45.8-15.2 62.7zm107.5-73.1c-5.1 12.5-15.9 44.6-22.4 42.8-5.601-1.5-9-25.8-1.101-49.8 4-12.101 12.5-26.5 17.5-32.101 8.101-9 16.9-12 19.101-8.3 2.6 4.801-9.9 39.601-13.1 47.401zm88.7 42.4c-2.2 1.101-4.2 1.9-5.1 1.301-.7-.4.899-1.9.899-1.9s11.1-11.9 15.5-17.4c2.5-3.199 5.5-6.899 8.7-11.1v1.2C313.6 292.1 299.8 301.7 293.6 305.6zm68.399-15.6c-1.6-1.2-1.399-4.9 4-16.5 2.101-4.6 6.9-12.3 15.2-19.6 1 3 1.601 5.899 1.5 8.6-.099 18-12.899 24.7-20.7 27.5z"/>
    </svg>

    <!-- mongoDB -->
    <svg id="icon-mongoDB" viewBox="8.738 -5.03622834 17.45992422 39.40619484">
      <path d="m15.9.087.854 1.604c.192.296.4.558.645.802a22.406 22.406 0 0 1 2.004 2.266c1.447 1.9 2.423 4.01 3.12 6.292.418 1.394.645 2.824.662 4.27.07 4.323-1.412 8.035-4.4 11.12a12.7 12.7 0 0 1 -1.57 1.342c-.296 0-.436-.227-.558-.436a3.589 3.589 0 0 1 -.436-1.255c-.105-.523-.174-1.046-.14-1.586v-.244c-.024-.052-.285-24.052-.181-24.175z" fill="#599636"/>
      <path d="m15.9.034c-.035-.07-.07-.017-.105.017.017.35-.105.662-.296.96-.21.296-.488.523-.767.767-1.55 1.342-2.77 2.963-3.747 4.776-1.3 2.44-1.97 5.055-2.16 7.808-.087.993.314 4.497.627 5.508.854 2.684 2.388 4.933 4.375 6.885.488.47 1.01.906 1.55 1.325.157 0 .174-.14.21-.244a4.78 4.78 0 0 0 .157-.68l.35-2.614z" fill="#6cac48"/>
      <path d="m16.754 28.845c.035-.4.227-.732.436-1.063-.21-.087-.366-.26-.488-.453a3.235 3.235 0 0 1 -.26-.575c-.244-.732-.296-1.5-.366-2.248v-.453c-.087.07-.105.662-.105.75a17.37 17.37 0 0 1 -.314 2.353c-.052.314-.087.627-.28.906 0 .035 0 .07.017.122.314.924.4 1.865.453 2.824v.35c0 .418-.017.33.33.47.14.052.296.07.436.174.105 0 .122-.087.122-.157l-.052-.575v-1.604c-.017-.28.035-.558.07-.82z" fill="#c2bfbf"/>
    </svg>

    <svg id="icon-javaScript" viewBox="0 0 1052 1052">
      <path fill="#f0db4f" d="M0 0h1052v1052H0z"/><path d="M965.9 801.1c-7.7-48-39-88.3-131.7-125.9-32.2-14.8-68.1-25.399-78.8-49.8-3.8-14.2-4.3-22.2-1.9-30.8 6.9-27.9 40.2-36.6 66.6-28.6 17 5.7 33.1 18.801 42.8 39.7 45.4-29.399 45.3-29.2 77-49.399-11.6-18-17.8-26.301-25.4-34-27.3-30.5-64.5-46.2-124-45-10.3 1.3-20.699 2.699-31 4-29.699 7.5-58 23.1-74.6 44-49.8 56.5-35.6 155.399 25 196.1 59.7 44.8 147.4 55 158.6 96.9 10.9 51.3-37.699 67.899-86 62-35.6-7.4-55.399-25.5-76.8-58.4-39.399 22.8-39.399 22.8-79.899 46.1 9.6 21 19.699 30.5 35.8 48.7 76.2 77.3 266.899 73.5 301.1-43.5 1.399-4.001 10.6-30.801 3.199-72.101zm-394-317.6h-98.4c0 85-.399 169.4-.399 254.4 0 54.1 2.8 103.7-6 118.9-14.4 29.899-51.7 26.2-68.7 20.399-17.3-8.5-26.1-20.6-36.3-37.699-2.8-4.9-4.9-8.7-5.601-9-26.699 16.3-53.3 32.699-80 49 13.301 27.3 32.9 51 58 66.399 37.5 22.5 87.9 29.4 140.601 17.3 34.3-10 63.899-30.699 79.399-62.199 22.4-41.3 17.6-91.3 17.4-146.6.5-90.2 0-180.4 0-270.9z" fill="#323330"/>
    </svg>

    <!-- <svg id="icon-javaScript"  fill="none" viewBox="0 0 124 141.53199999999998">
      <path d="M10.383 126.894L0 0l124 .255-10.979 126.639-50.553 14.638z" fill="#e9ca32"/><path d="M62.468 129.277V12.085l51.064.17-9.106 104.851z" fill="#ffde25"/><g fill="#fff"><path d="M57 26H43.5v78L33 102V91.5l-12.5-2V113l36.5 9.5zM67.127 26H104.5L102 40.95H81.394v24.533H102L99.5 115l-32.373 7.5V107L89 99.5 90.263 79l-23.136 3.35z"/></g>
    </svg> -->

    <!--GITHUB-->
    <svg  id="icon-gitHub" viewBox="0 0 256 249" preserveAspectRatio="xMinYMin meet"><g ><path d="M127.505 0C57.095 0 0 57.085 0 127.505c0 56.336 36.534 104.13 87.196 120.99 6.372 1.18 8.712-2.766 8.712-6.134 0-3.04-.119-13.085-.173-23.739-35.473 7.713-42.958-15.044-42.958-15.044-5.8-14.738-14.157-18.656-14.157-18.656-11.568-7.914.872-7.752.872-7.752 12.804.9 19.546 13.14 19.546 13.14 11.372 19.493 29.828 13.857 37.104 10.6 1.144-8.242 4.449-13.866 8.095-17.05-28.32-3.225-58.092-14.158-58.092-63.014 0-13.92 4.981-25.295 13.138-34.224-1.324-3.212-5.688-16.18 1.235-33.743 0 0 10.707-3.427 35.073 13.07 10.17-2.826 21.078-4.242 31.914-4.29 10.836.048 21.752 1.464 31.942 4.29 24.337-16.497 35.029-13.07 35.029-13.07 6.94 17.563 2.574 30.531 1.25 33.743 8.175 8.929 13.122 20.303 13.122 34.224 0 48.972-29.828 59.756-58.22 62.912 4.573 3.957 8.648 11.717 8.648 23.612 0 17.06-.148 30.791-.148 34.991 0 3.393 2.295 7.369 8.759 6.117 50.634-16.879 87.122-64.656 87.122-120.973C255.009 57.085 197.922 0 127.505 0"/><path d="M47.755 181.634c-.28.633-1.278.823-2.185.389-.925-.416-1.445-1.28-1.145-1.916.275-.652 1.273-.834 2.196-.396.927.415 1.455 1.287 1.134 1.923M54.027 187.23c-.608.564-1.797.302-2.604-.589-.834-.889-.99-2.077-.373-2.65.627-.563 1.78-.3 2.616.59.834.899.996 2.08.36 2.65M58.33 194.39c-.782.543-2.06.034-2.849-1.1-.781-1.133-.781-2.493.017-3.038.792-.545 2.05-.055 2.85 1.07.78 1.153.78 2.513-.019 3.069M65.606 202.683c-.699.77-2.187.564-3.277-.488-1.114-1.028-1.425-2.487-.724-3.258.707-.772 2.204-.555 3.302.488 1.107 1.026 1.445 2.496.7 3.258M75.01 205.483c-.307.998-1.741 1.452-3.185 1.028-1.442-.437-2.386-1.607-2.095-2.616.3-1.005 1.74-1.478 3.195-1.024 1.44.435 2.386 1.596 2.086 2.612M85.714 206.67c.036 1.052-1.189 1.924-2.705 1.943-1.525.033-2.758-.818-2.774-1.852 0-1.062 1.197-1.926 2.721-1.951 1.516-.03 2.758.815 2.758 1.86M96.228 206.267c.182 1.026-.872 2.08-2.377 2.36-1.48.27-2.85-.363-3.039-1.38-.184-1.052.89-2.105 2.367-2.378 1.508-.262 2.857.355 3.049 1.398"/></g></svg>

  </defs>
</svg>